<svg xmlns="http://www.w3.org/2000/svg" viewBox="0 0 320 180" shape-rendering="crispEdges">
  <defs>
    <linearGradient id="sky" x1="0" y1="0" x2="0" y2="1">
      <stop offset="0%" stop-color="#060a18"/>
      <stop offset="50%" stop-color="#0f1530"/>
      <stop offset="100%" stop-color="#1a1b40"/>
    </linearGradient>
    <linearGradient id="water" x1="0" y1="0" x2="0" y2="1">
      <stop offset="0%" stop-color="#0c1828"/>
      <stop offset="100%" stop-color="#060d18"/>
    </linearGradient>
  </defs>

  <!-- Sky -->
  <rect width="320" height="180" fill="url(#sky)"/>

  <!-- Stars - yellow -->
  <g fill="#f1fa8c" opacity="0.6">
    <rect x="12" y="8" width="2" height="2"/>
    <rect x="42" y="22" width="2" height="2"/>
    <rect x="76" y="6" width="2" height="2"/>
    <rect x="108" y="28" width="2" height="2"/>
    <rect x="138" y="14" width="2" height="2"/>
    <rect x="172" y="4" width="2" height="2"/>
    <rect x="198" y="20" width="2" height="2"/>
    <rect x="228" y="10" width="2" height="2"/>
    <rect x="288" y="16" width="2" height="2"/>
    <rect x="308" y="6" width="2" height="2"/>
    <rect x="52" y="42" width="2" height="2"/>
    <rect x="92" y="52" width="2" height="2"/>
    <rect x="158" y="38" width="2" height="2"/>
    <rect x="182" y="48" width="2" height="2"/>
    <rect x="28" y="56" width="2" height="2"/>
    <rect x="118" y="62" width="2" height="2"/>
    <rect x="218" y="55" width="2" height="2"/>
    <rect x="298" y="42" width="2" height="2"/>
  </g>

  <!-- Stars - bright white -->
  <g fill="#ffffff" opacity="0.8">
    <rect x="58" y="16" width="2" height="2"/>
    <rect x="148" y="32" width="2" height="2"/>
    <rect x="248" y="8" width="2" height="2"/>
    <rect x="98" y="40" width="2" height="2"/>
    <rect x="278" y="26" width="2" height="2"/>
    <rect x="18" y="34" width="2" height="2"/>
    <rect x="202" y="44" width="2" height="2"/>
  </g>

  <!-- Stars - cyan -->
  <g fill="#8be9fd" opacity="0.5">
    <rect x="35" y="12" width="2" height="2"/>
    <rect x="165" y="22" width="2" height="2"/>
    <rect x="305" y="30" width="2" height="2"/>
    <rect x="85" y="48" width="2" height="2"/>
    <rect x="240" y="18" width="2" height="2"/>
  </g>

  <!-- Moon (pixel art circle) -->
  <g fill="#ffffd4">
    <rect x="258" y="20" width="4" height="4"/>
    <rect x="262" y="16" width="4" height="4"/>
    <rect x="262" y="20" width="4" height="4"/>
    <rect x="262" y="24" width="4" height="4"/>
    <rect x="266" y="14" width="4" height="4"/>
    <rect x="266" y="18" width="4" height="4"/>
    <rect x="266" y="22" width="4" height="4"/>
    <rect x="266" y="26" width="4" height="4"/>
    <rect x="270" y="16" width="4" height="4"/>
    <rect x="270" y="20" width="4" height="4"/>
    <rect x="270" y="24" width="4" height="4"/>
    <rect x="274" y="20" width="4" height="4"/>
  </g>
  <!-- Moon highlight -->
  <g fill="#ffffff" opacity="0.35">
    <rect x="262" y="16" width="4" height="4"/>
    <rect x="266" y="14" width="4" height="4"/>
    <rect x="262" y="20" width="4" height="4"/>
  </g>
  <!-- Moon glow -->
  <circle cx="268" cy="22" r="24" fill="#ffffd4" opacity="0.025" shape-rendering="auto"/>
  <circle cx="268" cy="22" r="14" fill="#ffffd4" opacity="0.04" shape-rendering="auto"/>

  <!-- Soft clouds -->
  <g fill="#1a1e3a" opacity="0.3">
    <rect x="40" y="60" width="8" height="4"/>
    <rect x="48" y="56" width="12" height="4"/>
    <rect x="48" y="60" width="12" height="4"/>
    <rect x="60" y="58" width="8" height="4"/>
    <rect x="56" y="62" width="8" height="4"/>
  </g>
  <g fill="#1a1e3a" opacity="0.2">
    <rect x="200" y="48" width="8" height="4"/>
    <rect x="208" y="44" width="16" height="4"/>
    <rect x="208" y="48" width="16" height="4"/>
    <rect x="224" y="46" width="8" height="4"/>
    <rect x="216" y="50" width="8" height="4"/>
  </g>

  <!-- Far mountains (muted purple) -->
  <polygon fill="#1a1535" points="
    0,110 8,106 16,100 24,92 32,86 40,82 48,78 56,82 64,88
    72,94 80,100 88,104 96,100 104,92 112,84 120,78 128,74
    136,78 144,84 152,90 160,86 168,80 176,74 184,70 192,74
    200,80 208,88 216,94 224,90 232,84 240,78 248,74 256,78
    264,84 272,90 280,94 288,90 296,86 304,82 312,88 320,96
    320,180 0,180
  "/>
  <!-- Mountain edge highlights -->
  <g fill="#2a2250" opacity="0.4">
    <rect x="44" y="78" width="8" height="4"/>
    <rect x="124" y="74" width="8" height="4"/>
    <rect x="180" y="70" width="8" height="4"/>
    <rect x="244" y="74" width="8" height="4"/>
  </g>

  <!-- Mid hills (dark teal) -->
  <polygon fill="#0e2430" points="
    0,136 8,132 16,128 24,124 32,120 40,116 48,114 56,118
    64,122 72,126 80,130 88,126 96,122 104,118 112,114
    120,110 128,106 136,110 144,114 152,118 160,122 168,118
    176,114 184,110 192,106 200,110 208,114 216,118 224,122
    232,118 240,114 248,110 256,114 264,118 272,122 280,126
    288,122 296,118 304,114 312,118 320,124
    320,180 0,180
  "/>
  <!-- Hill edge highlights -->
  <g fill="#163a48" opacity="0.35">
    <rect x="44" y="114" width="8" height="4"/>
    <rect x="124" y="106" width="8" height="4"/>
    <rect x="188" y="106" width="8" height="4"/>
    <rect x="244" y="110" width="8" height="4"/>
    <rect x="300" y="114" width="8" height="4"/>
  </g>

  <!-- Near rolling hills (dark green) -->
  <polygon fill="#0a1e14" points="
    0,154 8,152 16,150 24,148 32,146 40,144 48,142 56,140
    64,138 72,140 80,142 88,144 96,146 104,144 112,142
    120,140 128,138 136,136 144,134 152,136 160,138 168,140
    176,138 184,136 192,134 200,132 208,134 216,136 224,138
    232,140 240,138 248,136 256,134 264,136 272,138 280,140
    288,138 296,136 304,138 312,142 320,146
    320,180 0,180
  "/>

  <!-- Pixel Tree 1 (x=56) -->
  <g>
    <rect x="58" y="128" width="4" height="10" fill="#12100a"/>
    <rect x="54" y="120" width="4" height="10" fill="#143a1e"/>
    <rect x="58" y="116" width="4" height="14" fill="#1a5230"/>
    <rect x="62" y="120" width="4" height="10" fill="#124428"/>
    <rect x="58" y="112" width="4" height="4" fill="#1a4a28"/>
  </g>

  <!-- Pixel Tree 2 (x=132, taller) -->
  <g>
    <rect x="134" y="124" width="4" height="12" fill="#12100a"/>
    <rect x="130" y="112" width="4" height="14" fill="#143a1e"/>
    <rect x="134" y="106" width="4" height="20" fill="#1e5a34"/>
    <rect x="138" y="112" width="4" height="14" fill="#164a26"/>
    <rect x="134" y="102" width="4" height="4" fill="#1a4a28"/>
  </g>

  <!-- Pixel Tree 3 (x=196, tall) -->
  <g>
    <rect x="198" y="120" width="4" height="12" fill="#12100a"/>
    <rect x="194" y="110" width="4" height="12" fill="#143a1e"/>
    <rect x="198" y="104" width="4" height="18" fill="#1a5230"/>
    <rect x="202" y="110" width="4" height="12" fill="#124428"/>
    <rect x="198" y="100" width="4" height="4" fill="#1a4a28"/>
  </g>

  <!-- Pixel Tree 4 (x=82, small) -->
  <g>
    <rect x="84" y="134" width="4" height="8" fill="#12100a"/>
    <rect x="80" y="126" width="4" height="10" fill="#124428"/>
    <rect x="84" y="122" width="4" height="14" fill="#1a5230"/>
    <rect x="88" y="126" width="4" height="10" fill="#143a1e"/>
    <rect x="84" y="120" width="4" height="4" fill="#164a26"/>
  </g>

  <!-- Pixel Tree 5 (x=272) -->
  <g>
    <rect x="274" y="128" width="4" height="10" fill="#12100a"/>
    <rect x="270" y="118" width="4" height="12" fill="#143a1e"/>
    <rect x="274" y="114" width="4" height="16" fill="#1e5a34"/>
    <rect x="278" y="118" width="4" height="12" fill="#124428"/>
    <rect x="274" y="110" width="4" height="4" fill="#1a4a28"/>
  </g>

  <!-- Pixel Tree 6 (x=240, small) -->
  <g>
    <rect x="242" y="130" width="4" height="8" fill="#12100a"/>
    <rect x="238" y="122" width="4" height="10" fill="#124428"/>
    <rect x="242" y="118" width="4" height="14" fill="#1a5230"/>
    <rect x="246" y="122" width="4" height="10" fill="#143a1e"/>
    <rect x="242" y="116" width="4" height="4" fill="#164a26"/>
  </g>

  <!-- Small bush at x=160 -->
  <g>
    <rect x="156" y="136" width="4" height="4" fill="#143a1e"/>
    <rect x="160" y="134" width="4" height="6" fill="#1a4a28"/>
    <rect x="164" y="136" width="4" height="4" fill="#124428"/>
  </g>

  <!-- Small bush at x=108 -->
  <g>
    <rect x="104" y="140" width="4" height="4" fill="#143a1e"/>
    <rect x="108" y="138" width="4" height="6" fill="#1a4a28"/>
    <rect x="112" y="140" width="4" height="4" fill="#124428"/>
  </g>

  <!-- Lake / Water -->
  <rect x="0" y="154" width="320" height="26" fill="url(#water)"/>

  <!-- Water ripples -->
  <g fill="#122035" opacity="0.4">
    <rect x="16" y="158" width="20" height="2"/>
    <rect x="72" y="162" width="28" height="2"/>
    <rect x="128" y="160" width="16" height="2"/>
    <rect x="180" y="164" width="24" height="2"/>
    <rect x="244" y="159" width="20" height="2"/>
    <rect x="296" y="163" width="16" height="2"/>
    <rect x="44" y="168" width="12" height="2"/>
    <rect x="108" y="170" width="24" height="2"/>
    <rect x="164" y="172" width="16" height="2"/>
    <rect x="220" y="168" width="20" height="2"/>
    <rect x="276" y="171" width="16" height="2"/>
    <rect x="56" y="174" width="20" height="2"/>
    <rect x="148" y="176" width="16" height="2"/>
    <rect x="200" y="175" width="24" height="2"/>
  </g>

  <!-- Moon reflection on water -->
  <g opacity="0.12">
    <rect x="264" y="156" width="8" height="2" fill="#ffffd4"/>
    <rect x="262" y="160" width="12" height="2" fill="#ffffd4"/>
    <rect x="266" y="164" width="4" height="2" fill="#ffffd4"/>
    <rect x="260" y="168" width="16" height="2" fill="#ffffd4"/>
    <rect x="264" y="172" width="8" height="2" fill="#ffffd4"/>
    <rect x="262" y="176" width="12" height="2" fill="#ffffd4"/>
  </g>

  <!-- Fireflies -->
  <g fill="#41fa75" opacity="0.5">
    <rect x="48" y="132" width="2" height="2"/>
    <rect x="126" y="126" width="2" height="2"/>
    <rect x="172" y="130" width="2" height="2"/>
    <rect x="210" y="128" width="2" height="2"/>
    <rect x="92" y="136" width="2" height="2"/>
    <rect x="256" y="132" width="2" height="2"/>
    <rect x="150" y="124" width="2" height="2"/>
  </g>
  <g fill="#f1fa8c" opacity="0.35">
    <rect x="68" y="128" width="2" height="2"/>
    <rect x="186" y="122" width="2" height="2"/>
    <rect x="234" y="134" width="2" height="2"/>
    <rect x="290" y="126" width="2" height="2"/>
  </g>
</svg>